<svg width="144" height="50" viewBox="0 0 144 50" fill="none" xmlns="http://www.w3.org/2000/svg">
<path d="M10.5918 2.01002V6.22551H8.60805V20.0764H10.5918V24.3273H0V20.0764H2.01916V6.1901H0V1.97461H10.5918V2.01002Z" fill="#3F2B20"/>
<path d="M11.8671 18.5528H16.1534C16.1534 20.2531 18.5622 20.6782 19.5187 20.6782C20.1563 20.6782 20.9356 20.5011 20.9356 19.5801C20.9356 18.6236 18.5268 18.4819 16.2596 17.6672C14.0988 16.8878 12.0087 15.5771 12.0087 12.5661C12.0087 9.30706 15.374 7.96094 17.6058 7.96094C19.7666 7.96094 21.6796 9.05909 22.3526 10.4406L22.6006 8.35059H26.5326V14.0893H22.388C22.388 12.7432 20.7231 11.6805 19.129 11.6805C18.456 11.6805 17.8892 12.0347 17.8892 12.814C17.8892 13.6996 19.7667 14.0893 21.8213 14.7978C24.2301 15.6126 26.9578 16.5336 26.9578 19.8989C26.9578 22.9099 24.1238 24.6811 21.0419 24.6811C18.7393 24.6811 16.9327 23.583 16.1534 22.3431L15.87 24.2915H11.9025V18.5528H11.8671Z" fill="#3F2B20"/>
<path d="M27.9138 16.2502C27.9492 10.9366 32.2356 7.96094 36.6636 7.96094C41.6938 8.03179 45.4134 11.0429 45.5196 16.3919C45.5905 21.6701 41.6584 24.7166 36.8053 24.7166C32.271 24.6812 27.843 21.8827 27.9138 16.2502ZM39.0016 16.3565C39.0016 13.9476 38.1868 12.1056 36.6636 12.0701C35.4238 12.0701 34.4673 13.9122 34.4673 16.2502C34.4673 18.8716 35.4946 20.5719 36.8407 20.5719C38.1868 20.6074 39.0016 18.7653 39.0016 16.3565Z" fill="#3F2B20"/>
<path d="M46.6538 24.2927V20.1127H47.9999V12.5673H46.6538V8.35185H52.6759L53.3844 10.2293C53.8803 9.62713 55.3681 7.89136 57.3519 7.89136C60.5755 7.89136 61.6028 9.4146 62.0987 10.1939C63.0906 9.09578 64.5785 7.89136 66.7748 7.89136C71.9467 7.89136 72.726 11.6463 72.726 15.543V19.9356H74.2847V24.2219H66.1726V16.4286C66.1726 14.9053 66.4559 12.461 64.9681 12.461C63.5866 12.461 63.2678 13.4175 63.2678 14.7991V19.971H65.1807V24.2573H56.9268V16.1452C56.9268 13.5592 56.856 12.4965 55.5807 12.4965C54.5534 12.4965 54.1283 13.0987 54.1283 14.4094V20.0772H56.0412V24.2573H46.6538V24.2927Z" fill="#3F2B20"/>
<path d="M91.6074 22.0964C89.234 24.1511 86.6834 24.8595 83.389 24.8595C79.4215 24.8595 74.958 22.3444 74.958 16.216C74.958 10.9733 78.713 7.89136 83.5307 7.89136C87.3211 7.89136 90.2259 9.83969 91.1469 12.4965C91.5366 13.5947 91.8908 16.0743 91.2178 17.881H81.1927C81.3698 18.7311 81.7949 20.5024 84.4872 20.5024C85.5853 20.5024 87.2148 20.3961 88.9506 18.9791L91.6074 22.0964ZM86.1166 14.7636C86.0812 13.5592 85.7978 12.2131 83.7432 12.2131C81.7949 12.2131 81.3344 13.9843 81.299 14.7636H86.1166Z" fill="#3F2B20"/>
<path d="M94.299 8.35137V5.41119L100.179 3.53369V8.35137H103.191V12.496H100.179V18.1639C100.179 19.262 99.9669 20.7144 101.207 20.7144C101.632 20.7144 102.624 20.431 103.226 20.1831V24.2568C102.269 24.6465 100.109 24.859 99.3647 24.859C94.5824 24.859 94.4407 22.2377 94.3345 18.1639V12.496H92.5986V8.35137H94.299Z" fill="#3F2B20"/>
<path d="M104.466 24.2917V20.1117H105.883V12.4955H104.501V8.35085H110.488L111.444 10.4055C112.259 8.88223 113.109 7.57153 116.368 7.57153V13.3102C113.499 13.3102 111.87 14.0541 111.87 16.8527V20.1471H113.464V24.3271H104.466V24.2917Z" fill="#3F2B20"/>
<path d="M117.679 24.2919V20.1118H119.025V12.4956H117.679V8.35098H125.083V20.1118H126.606V24.2919H117.679ZM122.001 0.451416C124.197 0.451416 125.508 2.22261 125.508 3.71042C125.508 5.44621 124.268 6.93402 122.001 6.93402C119.982 6.93402 118.565 5.23366 118.565 3.71042C118.565 2.22261 119.769 0.451416 122.001 0.451416Z" fill="#3F2B20"/>
<path d="M138.863 15.5426C138.793 14.0194 138.332 12.1773 136.844 12.1773C134.967 12.1773 134.046 14.1965 134.046 16.2511C134.046 18.3057 135.286 19.9706 137.34 20.006C139.041 20.0415 140.139 19.333 141.201 18.1994L144 21.4584C142.512 23.0879 139.643 24.7175 136.207 24.7175C131.531 24.7175 127.457 21.8835 127.457 16.2157C127.457 10.5832 131.212 8.06812 135.286 8.06812C137.446 8.06812 138.722 9.2371 139.253 9.87474L139.784 8.35148H143.539V15.5426H138.863Z" fill="#3F2B20"/>
<path d="M37.4781 43.3136C36.2736 44.6597 34.4316 45.8287 32.0936 45.8287C28.3386 45.8287 25.8235 43.4199 25.8235 39.4524C25.8235 35.3786 28.9054 32.9343 31.208 32.9343C32.9792 32.9343 33.7939 33.9262 33.9356 34.1388L34.3253 33.1469H37.1238V38.1771H33.9356C33.8648 37.0435 33.298 35.9454 32.0582 35.9454C30.7829 35.9454 29.9681 37.5395 29.9681 39.4524C29.9681 41.2236 30.8537 42.7823 32.5541 42.7823C34.0419 42.7823 35.2109 41.2236 35.388 41.0465L37.4781 43.3136Z" fill="#909A3A"/>
<path d="M38.187 45.5453V43.2073H38.9309V38.9564H38.187V36.6538H42.2962V43.2073H43.1464V45.5453H38.187ZM40.5959 32.2966C41.8003 32.2966 42.5442 33.2885 42.5442 34.1033C42.5442 35.0952 41.8357 35.9099 40.5959 35.9099C39.4623 35.9099 38.683 34.9535 38.683 34.1033C38.683 33.2885 39.356 32.2966 40.5959 32.2966Z" fill="#909A3A"/>
<path d="M44.8119 36.6912V35.0617L48.071 34.0344V36.7267H49.7713V39.0292H48.071V42.182C48.071 42.7842 47.9292 43.599 48.6377 43.599C48.8503 43.599 49.4171 43.4219 49.7713 43.3156V45.5827C49.24 45.7952 48.0355 45.9015 47.6104 45.9015C44.9536 45.9015 44.8474 44.4491 44.8119 42.182V39.0292H43.8555V36.7267H44.8119V36.6912Z" fill="#909A3A"/>
<path d="M55.9703 38.9215V36.6543H60.4692V38.8506H59.619L56.2537 47.0336C55.7223 48.1318 55.0139 49.5487 52.4279 49.5487C51.5069 49.4779 50.7984 49.1236 50.3024 48.6631L51.6485 46.5731C51.9319 46.821 52.3216 47.1044 52.6758 47.1753C53.2426 47.2815 53.6323 46.7856 53.8094 46.2188L54.0574 45.4749L50.5858 38.9215H49.8773V36.6543H55.3327V38.9215H54.4825L55.6515 41.6845L56.785 38.9215H55.9703Z" fill="#909A3A"/>
<path d="M75.8426 33.1487V37.0808H72.7607V35.4867H69.9268V37.9309H73.2921V40.3044H69.9268V43.2092H72.7607V41.5442H75.8426V45.5471H65.1445V43.1737H66.2781V35.4867H65.1445V33.1487H75.8426Z" fill="#909A3A"/>
<path d="M76.7295 45.5465V43.2085H77.5089V34.5296H76.765V32.2271H80.8742V43.2085H81.9369V45.5465H76.7295Z" fill="#909A3A"/>
<path d="M91.5008 44.3056C90.1901 45.4391 88.773 45.8642 86.931 45.8642C84.7347 45.8642 82.255 44.4473 82.255 41.0466C82.255 38.1418 84.345 36.406 87.0373 36.406C89.1273 36.406 90.7568 37.5041 91.2882 38.9919C91.5007 39.6296 91.7133 40.9757 91.3236 42.003H85.7266C85.8329 42.4989 86.0454 43.4554 87.5686 43.4554C88.1708 43.4554 89.0919 43.3846 90.0483 42.6052L91.5008 44.3056ZM88.4188 40.2318C88.4188 39.5587 88.2417 38.8148 87.1081 38.8148C86.01 38.8148 85.762 39.8067 85.7266 40.2318H88.4188Z" fill="#909A3A"/>
<path d="M92.2094 45.5459V43.2079H92.9532V39.0278H92.2094V36.6898H95.5746L95.9643 37.7526C96.2477 37.4337 97.0624 36.4773 98.196 36.4773C100.003 36.4773 100.569 37.3275 100.853 37.7526C101.42 37.1149 102.234 36.4773 103.474 36.4773C106.344 36.4773 106.804 38.5673 106.804 40.7282V43.1725H107.69V45.5813H103.191V41.2241C103.191 40.374 103.332 39.0278 102.518 39.0278C101.738 39.0278 101.561 39.5592 101.561 40.3385V43.2079H102.624V45.5813H98.0189V41.047C98.0189 39.5946 97.9834 39.0278 97.2749 39.0278C96.7082 39.0278 96.4603 39.3466 96.4603 40.0905V43.2433H97.523V45.5813H92.2094V45.5459Z" fill="#909A3A"/>
<path d="M117.183 44.3056C115.872 45.4391 114.455 45.8642 112.613 45.8642C110.417 45.8642 107.937 44.4473 107.937 41.0466C107.937 38.1418 110.027 36.406 112.72 36.406C114.81 36.406 116.439 37.5041 116.971 38.9919C117.183 39.6296 117.396 40.9757 117.006 42.003H111.409C111.515 42.4989 111.728 43.4554 113.251 43.4554C113.853 43.4554 114.774 43.3846 115.731 42.6052L117.183 44.3056ZM114.101 40.2318C114.101 39.5587 113.924 38.8148 112.79 38.8148C111.692 38.8148 111.444 39.8067 111.409 40.2318H114.101Z" fill="#909A3A"/>
<path d="M117.892 45.5467V43.2087H118.636V38.9578H117.892V36.6553H121.682L122.072 37.7534C122.674 36.9032 123.489 36.3364 124.622 36.3364C127.386 36.3364 127.846 38.391 127.846 40.2331V43.2087H128.696V45.5467H124.233V40.6936C124.233 40.0914 124.304 39.0287 123.241 39.0287C122.32 39.0287 122.107 39.9143 122.107 40.6936V43.2087H123.383V45.5467H117.892Z" fill="#909A3A"/>
<path d="M130.114 36.6912V35.0617L133.373 34.0344V36.7267H135.073V39.0292H133.373V42.182C133.373 42.7842 133.231 43.599 133.939 43.599C134.152 43.599 134.719 43.4219 135.073 43.3156V45.5827C134.542 45.7952 133.337 45.9015 132.912 45.9015C130.255 45.9015 130.149 44.4491 130.114 42.182V39.0292H129.157V36.7267H130.114V36.6912Z" fill="#909A3A"/>
<path d="M135.604 42.3594H137.977C137.977 43.2805 139.323 43.5284 139.855 43.5284C140.209 43.5284 140.634 43.4221 140.634 42.9262C140.634 42.3948 139.288 42.2886 138.013 41.8635C136.808 41.4384 135.639 40.6945 135.639 39.0295C135.639 37.2229 137.517 36.4436 138.757 36.4436C139.961 36.4436 141.024 37.0812 141.413 37.8252L141.555 36.6561H143.751V39.8443H141.449C141.449 39.1004 140.528 38.4982 139.642 38.4982C139.288 38.4982 138.934 38.7107 138.934 39.1358C138.934 39.6318 139.961 39.8443 141.095 40.234C142.441 40.6945 143.964 41.1904 143.964 43.0679C143.964 44.7328 142.37 45.7247 140.669 45.7247C139.394 45.7247 138.367 45.0871 137.942 44.414L137.8 45.5122H135.568V42.3594H135.604Z" fill="#909A3A"/>
</svg>
